# xmcd
#
# Track frame offsets:
#	183
#	18945
#	35345
#	53605
#	73203
#	92820
#	111643
#	131348
#	147953
#	166208
#	179610
#
# Disc length: 2657 seconds
#
# Revision: 24
# Processed by: cddbd v1.5.2PL0 Copyright (c) Steve Scherf et al.
# Submitted via: audiograbber 1.83.01
#
DISCID=990a5f0b
DTITLE=Various Artist - Pretty Woman - Original Motion Picture Soundtrack
DYEAR=1990
DGENRE=Pop
TTITLE0=Natalie Cole - Wild Women Do
TTITLE1=David Bowie - Fame 90
TTITLE2=Go West - King Of Wishful Thinking
TTITLE3=Jane Wiedlin - Tangled
TTITLE4=Roxette - It Must Have Been Love
TTITLE5=Robert Palmer - Life In Detail
TTITLE6=Peter Cetera - No Explanation
TTITLE7=Christopher Otcasek - Real Wild Child (Wild One)
TTITLE8=Lauren Wood - Fallen
TTITLE9=Roy Orbison - Oh Pretty Woman
TTITLE10=Red Hot Chili Peppers - Show Me Your Soul
EXTD=
EXTT0=
EXTT1=
EXTT2=
EXTT3=
EXTT4=
EXTT5=
EXTT6=
EXTT7=
EXTT8=
EXTT9=
EXTT10=
PLAYORDER=
